<svg xmlns="http://www.w3.org/2000/svg" xmlns:xlink="http://www.w3.org/1999/xlink" width="68" height="68" viewBox="0 0 68 68">
  <defs>
    <clipPath id="clip-path">
      <circle id="Elipse_2" data-name="Elipse 2" cx="34" cy="34" r="34" fill="#00d6de"/>
    </clipPath>
  </defs>
  <g id="Enmascarar_grupo_2" data-name="Enmascarar grupo 2" clip-path="url(#clip-path)">
    <g id="whatsapp" transform="translate(0 0)">
      <g id="Group_105" data-name="Group 105">
        <path id="Path_21" data-name="Path 21" d="M60.558,80.278a34,34,0,1,1,34-34A34,34,0,0,1,60.558,80.278Z" transform="translate(-26.558 -12.278)" fill="#0a8f2d"/>
      </g>
      <g id="Group_108" data-name="Group 108" transform="translate(15.065 11.868)">
        <g id="Group_106" data-name="Group 106" transform="translate(0 0)">
          <path id="Path_22" data-name="Path 22" d="M137.814,83.73a20.525,20.525,0,0,0-17.249,31.662l-3.117,6.87a1.793,1.793,0,0,0,1.632,2.533,1.821,1.821,0,0,0,.474-.064l8.591-2.359a20.528,20.528,0,1,0,9.669-38.643Zm0,37.468a16.924,16.924,0,0,1-8.532-2.308,1.789,1.789,0,0,0-.9-.244,1.808,1.808,0,0,0-.474.064l-5.6,1.543,1.955-4.307a1.791,1.791,0,0,0-.178-1.789,16.94,16.94,0,1,1,13.736,7.051Z" transform="translate(-117.281 -83.73)" fill="#fff" fill-rule="evenodd"/>
        </g>
        <g id="Group_107" data-name="Group 107" transform="translate(10.555 11.167)">
          <path id="Path_23" data-name="Path 23" d="M198.7,163.357a3.508,3.508,0,0,0-2.992-.674c-.778.317-1.275,1.534-1.777,2.155a.744.744,0,0,1-.963.212,13.547,13.547,0,0,1-6.762-5.791.827.827,0,0,1,.1-1.133,4.558,4.558,0,0,0,1.226-2,4.375,4.375,0,0,0-.548-2.361,5.593,5.593,0,0,0-1.743-2.626,2.391,2.391,0,0,0-2.595.387,5.266,5.266,0,0,0-1.825,4.171,6.047,6.047,0,0,0,.164,1.324,10.941,10.941,0,0,0,1.275,2.926,23.012,23.012,0,0,0,1.324,2.017,20.47,20.47,0,0,0,5.738,5.336,17.378,17.378,0,0,0,3.585,1.7,7.98,7.98,0,0,0,4.174.659,5.051,5.051,0,0,0,3.783-2.816,2.439,2.439,0,0,0,.176-1.434C200.838,164.426,199.5,163.838,198.7,163.357Z" transform="translate(-180.821 -150.924)" fill="#fff" fill-rule="evenodd"/>
        </g>
      </g>
    </g>
  </g>
</svg>
