<svg xmlns="http://www.w3.org/2000/svg" width="36.259" height="42.336" viewBox="0 0 36.259 42.336">
  <g id="Grupo_9" data-name="Grupo 9" transform="translate(-152 -574.664)">
    <path id="Trazado_1" data-name="Trazado 1" d="M91.352,115H60.973a2.94,2.94,0,0,1-2.94-2.94h0V75.6a2.939,2.939,0,0,1,2.939-2.94h30.38a2.94,2.94,0,0,1,2.94,2.94V112.06a2.941,2.941,0,0,1-2.94,2.94ZM62.828,75.995a1.387,1.387,0,0,0-1.386,1.386v32.9a1.387,1.387,0,0,0,1.386,1.386H89.5a1.387,1.387,0,0,0,1.386-1.386V77.38A1.387,1.387,0,0,0,89.5,75.995Z" transform="translate(93.967 502)" fill="#bfe6e2"/>
    <g id="Grupo_2" data-name="Grupo 2" transform="translate(157.976 587.63)">
      <path id="Trazado_2" data-name="Trazado 2" d="M96.339,115.2a12.16,12.16,0,1,1-12.162-12.161A12.162,12.162,0,0,1,96.339,115.2" transform="translate(-72.019 -103.041)" fill="#c7eae4"/>
      <g id="Grupo_1" data-name="Grupo 1" transform="translate(3.045 3.045)">
        <path id="Trazado_3" data-name="Trazado 3" d="M97.382,119.291a9.115,9.115,0,1,1-9.116-9.116,9.116,9.116,0,0,1,9.116,9.116" transform="translate(-79.152 -110.175)" fill="#95c0dc"/>
        <path id="Trazado_4" data-name="Trazado 4" d="M99.337,127.038a3.409,3.409,0,1,1-3.327-3.49,3.411,3.411,0,0,1,3.327,3.49" transform="translate(-86.814 -117.839)" fill="#5a86ae"/>
      </g>
    </g>
    <path id="Trazado_5" data-name="Trazado 5" d="M95.055,90.284a4.06,4.06,0,1,0-4.06-4.06A4.065,4.065,0,0,0,95.055,90.284Zm0-5.532a1.472,1.472,0,1,1-1.472,1.472A1.474,1.474,0,0,1,95.055,84.752Z" transform="translate(75.091 496.555)" fill="#95c0dc"/>
  </g>
</svg>
